<svg xmlns="http://www.w3.org/2000/svg" viewBox="0 0 1400 520" role="img" aria-label="Rawafed school campus abstract">
  <rect width="1400" height="520" fill="#0a57a4"/>
  <path d="M0 390c170-80 320-84 470-25 167 66 336 45 493-24 157-69 291-73 437-8v187H0z" fill="#0d77c4" opacity=".55"/>
  <path d="M142 314h1116v156H142z" fill="#f7f9fd" opacity=".2"/>
  <path d="M220 250h248v220H220zM576 196h248v274H576zM932 250h248v220H932z" fill="#fff" opacity=".24"/>
  <path d="M188 250h312l-156-96zm356-54h312L700 92zm356 54h312l-156-96z" fill="#f5c451" opacity=".75"/>
  <g fill="#fff" opacity=".54">
    <rect x="266" y="300" width="52" height="56" rx="4"/>
    <rect x="370" y="300" width="52" height="56" rx="4"/>
    <rect x="622" y="258" width="52" height="56" rx="4"/>
    <rect x="726" y="258" width="52" height="56" rx="4"/>
    <rect x="978" y="300" width="52" height="56" rx="4"/>
    <rect x="1082" y="300" width="52" height="56" rx="4"/>
  </g>
</svg>
